<svg xmlns="http://www.w3.org/2000/svg" viewBox="0 0 347.2 54.12"><defs><style>.cls-1{fill:#000102;}</style></defs><g id="레이어_2" data-name="레이어 2"><g id="Layer_1" data-name="Layer 1"><g id="Layer_2" data-name="Layer 2"><g id="Layer_1-2" data-name="Layer 1-2"><path class="cls-1" d="M15.15,8.32H0V1.53H38.48V8.32H23.25V53.1h-8.1Z"/><path class="cls-1" d="M38.61,33.93c0-12.56,8.54-20.36,17.51-20.36,10.25,0,15.72,7.4,15.72,18.3a20.53,20.53,0,0,1-.35,4.07h-25a11.69,11.69,0,0,0,11.6,11.78h.35a16.17,16.17,0,0,0,9.15-2.89L70.39,50A22.9,22.9,0,0,1,57.26,54,18.51,18.51,0,0,1,38.55,35.71,17.54,17.54,0,0,1,38.61,33.93Zm26.27-3.5c0-6.66-3-10.51-8.76-10.51a10.42,10.42,0,0,0-9.67,10.73Z"/><path class="cls-1" d="M77.75,42.9c0-8.27,7-12.56,23.07-14.31,0-4.38-1.71-8.41-7.35-8.41A21.3,21.3,0,0,0,82.3,24.12l-3-5.47a29.56,29.56,0,0,1,15.59-5.08c9.58,0,14,6.13,14,16.33V53.1h-6.62l-.7-4.37h-.21a19.14,19.14,0,0,1-12.26,5.34A10.64,10.64,0,0,1,77.75,42.9Zm22.94.27V33.71c-11.43,1.4-15.28,4.38-15.28,8.76s2.58,5.29,6,5.29A13.53,13.53,0,0,0,100.69,43.17Z"/><path class="cls-1" d="M120.39,14.58H127l.61,5.38h.22a16.79,16.79,0,0,1,12-6.39,10.31,10.31,0,0,1,10.64,7.09,17.85,17.85,0,0,1,12.56-7.09c8.06,0,11.82,5.48,11.82,15.28V53.1h-8V29.86c0-6.66-2.11-9.33-6.44-9.33a12.79,12.79,0,0,0-8.75,5.26V53.1h-8V29.86c0-6.66-2.06-9.33-6.48-9.33a13.15,13.15,0,0,0-8.76,5.26V53.1h-7.92Z"/><path class="cls-1" d="M184.09,27.32C184.09,9.81,195.77,0,209.74,0a23.21,23.21,0,0,1,16.68,6.79l-6.66,8a13.09,13.09,0,0,0-9.63-4.07c-7.7,0-13.13,6-13.13,16.2s4.38,16.37,14.18,16.37a9,9,0,0,0,5-1.32v-8.4H207.9V23.34h19.39V47.72a25.76,25.76,0,0,1-17.51,6.39C195.42,54.11,184.09,45,184.09,27.32Z"/><path class="cls-1" d="M264.07,53.1l-9.59-18.34h-6V53.1H235.92V1h19.13c11.12,0,20.4,3.81,20.4,16.42a15.5,15.5,0,0,1-9,15.06l11.6,20.66ZM248.44,24.87h5.47c6,0,9.11-2.59,9.11-7.49s-3-6.52-9.11-6.52h-5.47Z"/><path class="cls-1" d="M285.65,1h12.52V53.1H285.65Z"/><path class="cls-1" d="M320.37,11.34H306.44V1H347.2V11.34H332.93V53.1H320.37Z"/></g></g></g></g></svg>